<?xml version="1.0" encoding="UTF-8" standalone="no"?>
<!DOCTYPE svg PUBLIC "-//W3C//DTD SVG 1.1//EN" "http://www.w3.org/Graphics/SVG/1.1/DTD/svg11.dtd">
<svg xmlns="http://www.w3.org/2000/svg" version="1.1" viewBox="0.00 0.00 2915.00 718.00">
<path fill="#ffffff" d="
  M 944.84 130.04
  A 0.26 0.26 0.0 0 0 944.60 129.69
  L 404.49 129.79
  A 4.68 4.68 0.0 0 0 401.80 130.64
  L 280.23 215.97
  A 4.61 4.58 -6.2 0 0 278.66 217.91
  L 106.50 623.55
  Q 106.23 624.17 106.57 624.77
  L 155.95 711.21
  A 0.62 0.61 -14.8 0 1 155.41 712.13
  L 7.33 712.13
  A 0.30 0.29 -78.6 0 1 7.06 711.72
  L 306.24 6.80
  Q 306.37 6.49 306.71 6.49
  L 1058.24 6.49
  Q 1058.81 6.49 1058.59 7.01
  L 759.57 711.55
  Q 759.32 712.13 758.70 712.13
  L 610.76 712.13
  Q 609.37 712.13 610.61 711.50
  Q 611.72 710.94 612.83 710.16
  Q 673.62 667.37 733.84 625.15
  A 5.69 5.68 83.9 0 0 735.78 622.74
  L 843.41 369.16
  A 0.28 0.28 0.0 0 0 843.15 368.77
  L 505.26 368.77
  A 0.76 0.75 10.9 0 0 504.56 369.24
  L 458.84 476.96
  A 0.39 0.38 -78.3 0 0 459.19 477.50
  L 650.79 477.50
  Q 651.80 477.50 651.41 478.43
  L 604.84 588.16
  A 0.78 0.76 11.5 0 1 604.13 588.62
  L 267.39 588.63
  Q 266.60 588.63 266.91 587.90
  L 408.95 253.22
  Q 409.18 252.69 409.75 252.69
  L 892.04 252.85
  A 1.12 1.12 0.0 0 0 893.07 252.17
  L 944.84 130.04
  Z"
/>
<path fill="#ffffff" d="
  M 1068.68 128.50
  L 1585.53 128.50
  A 0.45 0.45 0.0 0 1 1585.94 129.13
  L 1533.82 251.97
  A 0.45 0.45 0.0 0 1 1533.40 252.24
  L 1016.54 252.24
  A 0.45 0.45 0.0 0 1 1016.13 251.61
  L 1068.26 128.77
  A 0.45 0.45 0.0 0 1 1068.68 128.50
  Z"
/>
<path fill="#ffffff" d="
  M 1864.83 268.97
  L 1788.53 269.00
  A 0.35 0.35 0.0 0 1 1788.21 268.51
  L 1806.39 225.77
  A 0.35 0.35 0.0 0 1 1806.71 225.56
  L 1941.56 225.52
  A 0.35 0.35 0.0 0 1 1941.88 226.01
  L 1898.71 327.67
  A 0.35 0.35 0.0 0 1 1898.59 327.82
  L 1848.91 362.76
  A 0.35 0.35 0.0 0 1 1848.71 362.82
  L 1667.09 362.77
  A 0.35 0.35 0.0 0 1 1666.79 362.59
  L 1647.01 327.91
  A 0.35 0.35 0.0 0 1 1646.99 327.60
  L 1716.11 164.80
  A 0.35 0.35 0.0 0 1 1716.23 164.65
  L 1765.77 129.80
  A 0.35 0.35 0.0 0 1 1765.97 129.74
  L 1947.49 129.75
  A 0.35 0.35 0.0 0 1 1947.79 129.92
  L 1967.82 164.55
  A 0.35 0.35 0.0 0 1 1967.84 164.86
  L 1951.39 203.48
  A 0.35 0.35 0.0 0 1 1951.07 203.69
  L 1893.61 203.72
  A 0.35 0.35 0.0 0 1 1893.29 203.23
  L 1903.38 179.51
  A 0.35 0.35 0.0 0 0 1903.06 179.02
  L 1768.39 179.03
  A 0.35 0.35 0.0 0 0 1768.07 179.24
  L 1711.25 313.05
  A 0.35 0.35 0.0 0 0 1711.57 313.54
  L 1846.25 313.54
  A 0.35 0.35 0.0 0 0 1846.57 313.33
  L 1865.15 269.46
  A 0.35 0.35 0.0 0 0 1864.83 268.97
  Z"
/>
<path fill="#ffffff" d="
  M 2393.93 310.54
  L 2278.75 310.54
  Q 2278.15 310.54 2277.74 310.99
  L 2231.36 362.31
  Q 2230.93 362.79 2230.29 362.79
  L 2165.99 362.78
  Q 2164.61 362.78 2165.55 361.78
  L 2381.74 130.25
  A 1.39 1.39 0.0 0 1 2382.67 129.82
  Q 2386.20 129.67 2389.44 129.68
  Q 2415.95 129.74 2443.04 129.77
  Q 2443.54 129.78 2443.59 130.28
  L 2465.49 362.26
  Q 2465.54 362.81 2464.99 362.81
  L 2397.80 362.78
  A 0.35 0.35 0.0 0 1 2397.45 362.45
  L 2394.34 310.93
  A 0.41 0.41 0.0 0 0 2393.93 310.54
  Z
  M 2387.20 190.74
  A 0.32 0.32 0.0 0 0 2386.64 190.54
  L 2320.72 263.32
  A 0.32 0.32 0.0 0 0 2320.96 263.85
  L 2391.37 263.86
  A 0.32 0.32 0.0 0 0 2391.69 263.52
  L 2387.20 190.74
  Z"
/>
<path fill="#ffffff" d="
  M 2045.15 221.01
  L 2164.21 221.01
  A 0.31 0.31 0.0 0 1 2164.50 221.44
  L 2144.24 269.06
  A 0.31 0.31 0.0 0 1 2143.95 269.25
  L 2024.36 269.25
  A 0.31 0.31 0.0 0 0 2024.07 269.44
  L 2005.56 313.11
  A 0.31 0.31 0.0 0 0 2005.85 313.54
  L 2168.30 313.54
  A 0.31 0.31 0.0 0 1 2168.59 313.97
  L 2147.97 362.60
  A 0.31 0.31 0.0 0 1 2147.68 362.79
  L 1926.90 362.79
  A 0.31 0.31 0.0 0 1 1926.61 362.36
  L 2025.21 129.94
  A 0.31 0.31 0.0 0 1 2025.50 129.75
  L 2246.29 129.76
  A 0.31 0.31 0.0 0 1 2246.58 130.19
  L 2225.95 178.83
  A 0.31 0.31 0.0 0 1 2225.66 179.02
  L 2062.70 179.02
  A 0.31 0.31 0.0 0 0 2062.41 179.21
  L 2044.86 220.58
  A 0.31 0.31 0.0 0 0 2045.15 221.01
  Z"
/>
<path fill="#ffffff" d="
  M 2745.59 362.79
  L 2673.40 362.78
  A 0.36 0.36 0.0 0 1 2673.07 362.57
  L 2636.02 279.84
  A 0.36 0.36 0.0 0 0 2635.69 279.63
  L 2585.07 279.63
  A 0.36 0.36 0.0 0 0 2584.74 279.85
  L 2549.66 362.57
  A 0.36 0.36 0.0 0 1 2549.33 362.79
  L 2491.04 362.78
  A 0.36 0.36 0.0 0 1 2490.71 362.28
  L 2589.27 129.98
  A 0.36 0.36 0.0 0 1 2589.60 129.76
  L 2797.92 129.74
  A 0.36 0.36 0.0 0 1 2798.23 129.92
  L 2818.26 164.53
  A 0.36 0.36 0.0 0 1 2818.28 164.86
  L 2784.35 244.79
  A 0.36 0.36 0.0 0 1 2784.23 244.95
  L 2734.66 279.56
  A 0.36 0.36 0.0 0 1 2734.46 279.62
  L 2701.58 279.63
  A 0.36 0.36 0.0 0 0 2701.26 280.16
  L 2745.91 362.26
  A 0.36 0.36 0.0 0 1 2745.59 362.79
  Z
  M 2730.83 231.12
  A 0.37 0.37 0.0 0 0 2731.17 230.89
  L 2752.84 179.84
  A 0.37 0.37 0.0 0 0 2752.50 179.33
  L 2627.67 179.34
  A 0.37 0.37 0.0 0 0 2627.33 179.57
  L 2605.67 230.61
  A 0.37 0.37 0.0 0 0 2606.01 231.12
  L 2730.83 231.12
  Z"
/>
<path fill="#e02833" d="
  M 1050.03 516.40
  L 967.05 711.94
  A 0.31 0.31 0.0 0 1 966.76 712.13
  L 821.44 712.13
  A 0.31 0.31 0.0 0 1 821.15 711.70
  L 966.52 369.18
  A 0.31 0.31 0.0 0 1 966.81 368.99
  L 1409.49 368.99
  A 0.31 0.31 0.0 0 1 1409.78 369.42
  L 1347.56 516.02
  A 0.31 0.31 0.0 0 1 1347.27 516.21
  L 1050.32 516.21
  A 0.31 0.31 0.0 0 0 1050.03 516.40
  Z"
/>
<path fill="#ffffff" d="
  M 1596.40 584.74
  L 1714.38 584.74
  A 0.30 0.30 0.0 0 1 1714.65 585.16
  L 1694.06 633.60
  A 0.30 0.30 0.0 0 1 1693.78 633.78
  L 1575.30 633.78
  A 0.30 0.30 0.0 0 0 1575.02 633.96
  L 1541.93 712.07
  A 0.30 0.30 0.0 0 1 1541.65 712.25
  L 1484.21 712.26
  A 0.30 0.30 0.0 0 1 1483.94 711.84
  L 1582.53 479.43
  A 0.30 0.30 0.0 0 1 1582.81 479.25
  L 1788.55 479.25
  A 0.30 0.30 0.0 0 1 1788.82 479.67
  L 1768.21 528.32
  A 0.30 0.30 0.0 0 1 1767.93 528.50
  L 1620.03 528.50
  A 0.30 0.30 0.0 0 0 1619.75 528.68
  L 1596.13 584.32
  A 0.30 0.30 0.0 0 0 1596.40 584.74
  Z"
/>
<path fill="#ffffff" d="
  M 1803.04 514.05
  L 1852.29 479.40
  A 0.82 0.82 0.0 0 1 1852.76 479.25
  L 2033.95 479.25
  A 0.82 0.82 0.0 0 1 2034.66 479.66
  L 2054.41 513.81
  A 0.82 0.82 0.0 0 1 2054.46 514.54
  L 1985.48 676.99
  A 0.82 0.82 0.0 0 1 1985.20 677.34
  L 1935.80 712.10
  A 0.82 0.82 0.0 0 1 1935.33 712.25
  L 1754.08 712.25
  A 0.82 0.82 0.0 0 1 1753.36 711.84
  L 1733.84 677.58
  A 0.82 0.82 0.0 0 1 1733.80 676.86
  L 1802.76 514.40
  A 0.82 0.82 0.0 0 1 1803.04 514.05
  Z
  M 1797.97 662.51
  A 0.36 0.36 0.0 0 0 1798.30 663.01
  L 1932.95 663.00
  A 0.36 0.36 0.0 0 0 1933.28 662.78
  L 1990.09 529.00
  A 0.36 0.36 0.0 0 0 1989.76 528.50
  L 1855.10 528.50
  A 0.36 0.36 0.0 0 0 1854.77 528.72
  L 1797.97 662.51
  Z"
/>
<path fill="#ffffff" d="
  M 2223.45 629.60
  L 2268.14 711.77
  A 0.33 0.33 0.0 0 1 2267.85 712.26
  L 2195.60 712.25
  A 0.33 0.33 0.0 0 1 2195.30 712.05
  L 2158.24 629.33
  A 0.33 0.33 0.0 0 0 2157.94 629.13
  L 2107.25 629.13
  A 0.33 0.33 0.0 0 0 2106.94 629.33
  L 2071.88 712.05
  A 0.33 0.33 0.0 0 1 2071.57 712.25
  L 2013.21 712.26
  A 0.33 0.33 0.0 0 1 2012.90 711.80
  L 2111.47 479.45
  A 0.33 0.33 0.0 0 1 2111.78 479.25
  L 2320.18 479.25
  A 0.33 0.33 0.0 0 1 2320.47 479.41
  L 2340.48 514.02
  A 0.33 0.33 0.0 0 1 2340.50 514.31
  L 2306.56 594.28
  A 0.33 0.33 0.0 0 1 2306.44 594.42
  L 2256.82 629.07
  A 0.33 0.33 0.0 0 1 2256.63 629.13
  L 2223.74 629.11
  A 0.33 0.33 0.0 0 0 2223.45 629.60
  Z
  M 2253.05 580.62
  A 0.32 0.32 0.0 0 0 2253.34 580.43
  L 2275.09 529.24
  A 0.32 0.32 0.0 0 0 2274.80 528.79
  L 2149.86 528.79
  A 0.32 0.32 0.0 0 0 2149.57 528.98
  L 2127.84 580.17
  A 0.32 0.32 0.0 0 0 2128.13 580.62
  L 2253.05 580.62
  Z"
/>
<path fill="#ffffff" d="
  M 2507.74 662.78
  L 2522.14 628.96
  A 0.37 0.37 0.0 0 1 2522.48 628.74
  L 2579.91 628.74
  A 0.37 0.37 0.0 0 1 2580.25 629.25
  L 2559.88 677.11
  A 0.37 0.37 0.0 0 1 2559.75 677.27
  L 2510.14 712.18
  A 0.37 0.37 0.0 0 1 2509.92 712.25
  L 2328.26 712.25
  A 0.37 0.37 0.0 0 1 2327.94 712.06
  L 2308.17 677.39
  A 0.37 0.37 0.0 0 1 2308.15 677.06
  L 2377.26 514.28
  A 0.37 0.37 0.0 0 1 2377.39 514.12
  L 2426.85 479.32
  A 0.37 0.37 0.0 0 1 2427.07 479.25
  L 2608.67 479.25
  A 0.37 0.37 0.0 0 1 2608.99 479.43
  L 2628.97 514.00
  A 0.37 0.37 0.0 0 1 2628.99 514.33
  L 2608.50 562.65
  A 0.37 0.37 0.0 0 1 2608.15 562.88
  L 2550.75 562.85
  A 0.37 0.37 0.0 0 1 2550.41 562.34
  L 2564.53 529.01
  A 0.37 0.37 0.0 0 0 2564.19 528.50
  L 2429.56 528.50
  A 0.37 0.37 0.0 0 0 2429.22 528.73
  L 2372.42 662.50
  A 0.37 0.37 0.0 0 0 2372.76 663.01
  L 2507.40 663.00
  A 0.37 0.37 0.0 0 0 2507.74 662.78
  Z"
/>
<path fill="#ffffff" d="
  M 2829.73 663.44
  L 2809.13 712.05
  A 0.32 0.32 0.0 0 1 2808.84 712.25
  L 2588.06 712.25
  A 0.32 0.32 0.0 0 1 2587.77 711.81
  L 2686.36 479.45
  A 0.32 0.32 0.0 0 1 2686.65 479.25
  L 2907.42 479.25
  A 0.32 0.32 0.0 0 1 2907.71 479.69
  L 2887.11 528.30
  A 0.32 0.32 0.0 0 1 2886.82 528.50
  L 2723.87 528.50
  A 0.32 0.32 0.0 0 0 2723.58 528.69
  L 2706.01 570.04
  A 0.32 0.32 0.0 0 0 2706.30 570.49
  L 2825.36 570.49
  A 0.32 0.32 0.0 0 1 2825.65 570.93
  L 2805.43 618.60
  A 0.32 0.32 0.0 0 1 2805.14 618.80
  L 2685.56 618.79
  A 0.32 0.32 0.0 0 0 2685.27 618.98
  L 2666.72 662.55
  A 0.32 0.32 0.0 0 0 2667.01 663.00
  L 2829.44 663.00
  A 0.32 0.32 0.0 0 1 2829.73 663.44
  Z"
/>
</svg>
